<?xml version="1.0" encoding="utf-8"?>
<!-- Generator: Adobe Illustrator 23.0.3, SVG Export Plug-In . SVG Version: 6.00 Build 0)  -->
<svg version="1.1" id="Layer_1" xmlns="http://www.w3.org/2000/svg" xmlns:xlink="http://www.w3.org/1999/xlink" x="0px" y="0px"
	 viewBox="0 0 595.28 364.47" style="enable-background:new 0 0 595.28 364.47;" xml:space="preserve">
<style type="text/css">
	.st0{fill-rule:evenodd;clip-rule:evenodd;fill:#4C4B49;}
	.st1{fill:#FFFFFF;}
	.st2{fill:#43A9C6;}
</style>
<polygon class="st0" points="-217,364.47 810.6,364.47 810.6,0 -217,0 -217,364.47 "/>
<path class="st1" d="M109.45,240.9c-0.17-3.23-0.38-7.16-0.38-10.01H109c-0.82,2.68-1.75,5.61-2.92,8.81l-4.09,11.25h-2.27
	l-3.79-11.05c-1.1-3.3-1.99-6.27-2.65-9.02h-0.07c-0.07,2.89-0.24,6.74-0.45,10.26l-0.62,9.95h-2.86l1.62-23.2h3.82l3.96,11.22
	c0.96,2.86,1.72,5.4,2.34,7.81h0.07c0.62-2.34,1.45-4.89,2.48-7.81l4.13-11.22h3.82l1.44,23.2H110L109.45,240.9L109.45,240.9z"/>
<polygon class="st1" points="153.65,240.21 144.66,240.21 144.66,248.57 154.71,248.57 154.71,251.09 141.63,251.09 141.63,227.89 
	154.19,227.89 154.19,230.4 144.66,230.4 144.66,237.73 153.65,237.73 153.65,240.21 "/>
<path class="st1" d="M182.69,228.23c1.52-0.31,3.72-0.52,5.75-0.52c3.2,0,5.3,0.62,6.75,1.93c1.13,1,1.82,2.58,1.82,4.4
	c0,3.03-1.96,5.06-4.37,5.89v0.1c1.76,0.62,2.82,2.27,3.41,4.68c0.75,3.24,1.31,5.47,1.76,6.37h-3.1c-0.38-0.65-0.9-2.65-1.51-5.54
	c-0.69-3.2-1.96-4.41-4.68-4.51h-2.82v10.05h-3V228.23L182.69,228.23z M185.69,238.76h3.06c3.2,0,5.23-1.75,5.23-4.4
	c0-3-2.17-4.3-5.33-4.3c-1.45,0-2.44,0.14-2.96,0.27V238.76L185.69,238.76z"/>
<path class="st1" d="M241.58,250.36c-1.07,0.55-3.3,1.1-6.13,1.1c-6.54,0-11.43-4.13-11.43-11.77c0-7.3,4.92-12.18,12.12-12.18
	c2.86,0,4.71,0.62,5.5,1.03l-0.75,2.44c-1.1-0.55-2.72-0.97-4.65-0.97c-5.44,0-9.05,3.48-9.05,9.57c0,5.71,3.27,9.33,8.88,9.33
	c1.86,0,3.72-0.38,4.92-0.96L241.58,250.36L241.58,250.36z"/>
<path class="st1" d="M273.35,243.79l-2.41,7.3h-3.1l7.88-23.2h3.61l7.92,23.2h-3.2l-2.48-7.3H273.35L273.35,243.79z M280.95,241.45
	L280.95,241.45l-2.3-6.68c-0.48-1.52-0.82-2.89-1.17-4.23h-0.1c-0.31,1.34-0.69,2.79-1.14,4.2l-2.27,6.71H280.95L280.95,241.45z"/>
<path class="st1" d="M314.71,228.2c1.86-0.27,4.03-0.48,6.4-0.48c4.3,0,7.37,0.96,9.4,2.86c2.1,1.89,3.31,4.61,3.31,8.36
	c0,3.79-1.21,6.88-3.35,9.02c-2.2,2.17-5.78,3.34-10.29,3.34c-2.17,0-3.93-0.07-5.47-0.27V228.2L314.71,228.2z M317.74,248.74
	L317.74,248.74c0.75,0.14,1.86,0.14,3.03,0.14c6.4,0.03,9.88-3.58,9.88-9.84c0.03-5.54-3.06-8.95-9.4-8.95
	c-1.55,0-2.72,0.14-3.51,0.31V248.74L317.74,248.74z"/>
<path class="st1" d="M370.82,251.47c-6.16,0-10.43-4.75-10.43-11.77c0-7.36,4.55-12.18,10.74-12.18c6.36,0,10.46,4.85,10.46,11.74
	c0,7.95-4.85,12.22-10.74,12.22H370.82L370.82,251.47z M370.95,249.02L370.95,249.02c4.75,0,7.43-4.37,7.43-9.64
	c0-4.61-2.41-9.43-7.4-9.43c-4.99,0-7.47,4.65-7.47,9.67c0,4.89,2.68,9.4,7.4,9.4H370.95L370.95,249.02z"/>
<path class="st1" d="M440.92,228.2c1.86-0.27,4.03-0.48,6.4-0.48c4.3,0,7.36,0.96,9.4,2.86c2.1,1.89,3.3,4.61,3.3,8.36
	c0,3.79-1.2,6.88-3.34,9.02c-2.2,2.17-5.78,3.34-10.29,3.34c-2.17,0-3.92-0.07-5.47-0.27V228.2L440.92,228.2z M443.96,248.74
	L443.96,248.74c0.75,0.14,1.86,0.14,3.02,0.14c6.4,0.03,9.88-3.58,9.88-9.84c0.03-5.54-3.07-8.95-9.4-8.95
	c-1.55,0-2.72,0.14-3.51,0.31V248.74L443.96,248.74z"/>
<path class="st1" d="M491.73,243.79l-2.41,7.3h-3.1l7.88-23.2h3.61l7.92,23.2h-3.2l-2.47-7.3H491.73L491.73,243.79z M499.33,241.45
	L499.33,241.45l-2.31-6.68c-0.48-1.52-0.82-2.89-1.17-4.23h-0.1c-0.31,1.34-0.69,2.79-1.14,4.2l-2.27,6.71H499.33L499.33,241.45z"/>
<polygon class="st2" points="94.39,340.69 104.62,340.69 104.62,266.65 94.39,266.65 94.39,340.69 "/>
<path class="st2" d="M204.29,340.69h-10.23v-58.95c-0.03,0.1-0.09,0.33-0.15,0.69c-0.07,0.36-0.15,0.78-0.23,1.25
	c-0.09,0.46-0.19,0.93-0.31,1.39c-0.12,0.47-0.25,0.85-0.39,1.17l-23.77,54.46h-9.97l-23.72-54.41c-0.13-0.24-0.26-0.55-0.36-0.93
	c-0.1-0.38-0.2-0.77-0.28-1.16c-0.09-0.4-0.15-0.76-0.21-1.09c-0.05-0.33-0.08-0.57-0.08-0.75v58.33h-10.23v-74.04h8.47
	c1.62,0,3.09,0.44,4.42,1.32c1.32,0.88,2.3,2.02,2.92,3.44l23.09,52.96c0.27,0.69,0.49,1.4,0.64,2.14c0.16,0.75,0.25,1.55,0.28,2.41
	c0.1-1.72,0.43-3.24,0.98-4.55l23.09-52.96c0.66-1.48,1.65-2.64,3-3.49c1.34-0.84,2.79-1.27,4.34-1.27h8.68V340.69L204.29,340.69z"
	/>
<path class="st2" d="M243.61,266.65h9.97l32.29,74.04h-5.89c-1.62,0-3.08-0.42-4.39-1.27c-1.31-0.84-2.29-2.01-2.95-3.48
	l-5.17-11.78h-37.82l-5.11,11.78c-0.62,1.45-1.6,2.6-2.92,3.46c-1.33,0.86-2.8,1.3-4.42,1.3h-5.89L243.61,266.65L243.61,266.65z
	 M247.64,282.98L247.64,282.98l-13.49,30.95h28.88l-13.49-30.95c-0.55-1.2-0.88-2.67-0.98-4.39c-0.07,0.86-0.18,1.65-0.34,2.38
	C248.07,281.69,247.88,282.36,247.64,282.98L247.64,282.98z"/>
<path class="st2" d="M351.02,302.97v29.86c-1.72,1.72-3.63,3.15-5.71,4.27c-2.08,1.12-4.3,2.01-6.64,2.66
	c-2.35,0.66-4.79,1.1-7.32,1.34c-2.53,0.24-5.11,0.36-7.72,0.36c-5.23,0-10.15-0.99-14.73-2.97c-4.58-1.97-8.59-4.68-12.01-8.11
	c-3.43-3.43-6.13-7.43-8.11-12.01c-1.98-4.58-2.97-9.49-2.97-14.73c0-3.48,0.45-6.83,1.34-10.05c0.89-3.22,2.17-6.23,3.83-9.04
	c1.65-2.81,3.62-5.36,5.91-7.65c2.29-2.29,4.83-4.26,7.65-5.92c2.81-1.65,5.82-2.93,9.05-3.82c3.22-0.9,6.57-1.34,10.05-1.34
	c2.72,0,5.37,0.29,7.96,0.85c2.58,0.57,5.04,1.37,7.39,2.4c2.34,1.03,4.55,2.3,6.64,3.8c2.09,1.5,3.99,3.17,5.71,5.03l-1.91,1.91
	c-0.82,0.83-1.7,1.45-2.61,1.86c-0.91,0.41-1.97,0.62-3.18,0.62c-1.55,0-2.98-0.45-4.29-1.34c-2.27-1.55-4.72-2.75-7.36-3.62
	c-2.64-0.86-5.42-1.29-8.35-1.29c-3.82,0-7.4,0.72-10.75,2.17c-3.34,1.45-6.26,3.42-8.75,5.92c-2.5,2.5-4.47,5.42-5.91,8.76
	c-1.45,3.34-2.17,6.93-2.17,10.75c0,3.83,0.75,7.4,2.25,10.74c1.5,3.34,3.53,6.26,6.09,8.76c2.57,2.5,5.55,4.47,8.94,5.92
	c3.4,1.45,7,2.17,10.82,2.17c3.17,0,6.16-0.36,8.99-1.11c2.82-0.74,5.4-1.85,7.75-3.33V313.2h-4.14c-1.2,0-2.3-0.21-3.28-0.64
	c-0.98-0.43-1.82-1.01-2.5-1.73c-0.69-0.73-1.23-1.57-1.6-2.53c-0.38-0.96-0.57-1.98-0.57-3.05v-2.27H351.02L351.02,302.97z"/>
<polygon class="st2" points="412.92,340.69 367.14,340.69 367.14,266.65 412.92,266.65 412.92,276.88 377.37,276.88 377.37,298.22 
	406.15,298.22 406.15,308.45 377.37,308.45 377.37,330.46 412.92,330.46 412.92,340.69 "/>
<path class="st2" d="M507.21,340.69h-10.23v-58.95c-0.03,0.1-0.09,0.33-0.16,0.69c-0.07,0.36-0.14,0.78-0.23,1.25
	c-0.08,0.46-0.19,0.93-0.31,1.39c-0.12,0.47-0.25,0.85-0.39,1.17l-23.76,54.46h-9.98l-23.71-54.41c-0.14-0.24-0.26-0.55-0.37-0.93
	c-0.1-0.38-0.19-0.77-0.28-1.16c-0.08-0.4-0.15-0.76-0.21-1.09c-0.05-0.33-0.08-0.57-0.08-0.75v58.33h-10.23v-74.04h8.47
	c1.62,0,3.09,0.44,4.42,1.32c1.33,0.88,2.3,2.02,2.92,3.44l23.1,52.96c0.28,0.69,0.49,1.4,0.65,2.14c0.16,0.75,0.25,1.55,0.28,2.41
	c0.1-1.72,0.43-3.24,0.98-4.55l23.1-52.96c0.65-1.48,1.65-2.64,2.99-3.49c1.35-0.84,2.79-1.27,4.34-1.27h8.69V340.69L507.21,340.69z
	"/>
<polygon class="st2" points="398.08,14.81 343.33,14.81 343.33,24.48 385.2,24.48 385.2,150.07 372.31,150.07 372.31,92.1 
	362.65,92.1 362.65,159.73 237.06,159.73 237.06,127.53 224.18,127.53 224.18,172.61 372.31,172.61 372.31,159.73 398.08,159.73 
	398.08,14.81 "/>
<polygon class="st2" points="224.18,37.36 224.18,47.02 201.64,47.02 201.64,195.16 256.38,195.16 256.38,182.27 214.52,182.27 
	214.52,59.9 224.18,59.9 224.18,88.88 237.06,88.88 237.06,47.02 362.65,47.02 362.65,69.56 372.31,69.56 372.31,37.36 
	224.18,37.36 "/>
</svg>
